<svg xmlns="http://www.w3.org/2000/svg" xmlns:xlink="http://www.w3.org/1999/xlink" width="21" height="21">
  <defs>
    <path id="a" d="M20.756 8.591H10.744v4.057h5.763c-.537 2.577-2.784 4.057-5.763 4.057-3.516 0-6.349-2.769-6.349-6.205s2.833-6.205 6.35-6.205A6.3 6.3 0 0 1 14.7 5.68l3.126-3.054C15.92 1.002 13.479 0 10.744 0 4.786 0 0 4.677 0 10.5S4.786 21 10.744 21C16.116 21 21 17.182 21 10.5c0-.62-.098-1.289-.244-1.909z"/>
    <path id="c" d="M20.756 8.591H10.744v4.057h5.763c-.537 2.577-2.784 4.057-5.763 4.057-3.516 0-6.349-2.769-6.349-6.205s2.833-6.205 6.35-6.205A6.3 6.3 0 0 1 14.7 5.68l3.126-3.054C15.92 1.002 13.479 0 10.744 0 4.786 0 0 4.677 0 10.5S4.786 21 10.744 21C16.116 21 21 17.182 21 10.5c0-.62-.098-1.289-.244-1.909z"/>
    <path id="e" d="M20.756 8.591H10.744v4.057h5.763c-.537 2.577-2.784 4.057-5.763 4.057-3.516 0-6.349-2.769-6.349-6.205s2.833-6.205 6.35-6.205A6.3 6.3 0 0 1 14.7 5.68l3.126-3.054C15.92 1.002 13.479 0 10.744 0 4.786 0 0 4.677 0 10.5S4.786 21 10.744 21C16.116 21 21 17.182 21 10.5c0-.62-.098-1.289-.244-1.909z"/>
    <path id="g" d="M20.756 8.591H10.744v4.057h5.763c-.537 2.577-2.784 4.057-5.763 4.057-3.516 0-6.349-2.769-6.349-6.205s2.833-6.205 6.35-6.205A6.3 6.3 0 0 1 14.7 5.68l3.126-3.054C15.92 1.002 13.479 0 10.744 0 4.786 0 0 4.677 0 10.5S4.786 21 10.744 21C16.116 21 21 17.182 21 10.5c0-.62-.098-1.289-.244-1.909z"/>
  </defs>
  <g fill="none" fill-rule="evenodd">
    <mask id="b" fill="#fff">
      <use xlink:href="#a"/>
    </mask>
    <path fill="#FBBC05" d="M-.977 16.704V4.295L7.326 10.5z" mask="url(#b)"/>
    <mask id="d" fill="#fff">
      <use xlink:href="#c"/>
    </mask>
    <path fill="#EA4335" d="M-.977 4.295L7.326 10.5l3.418-2.911 11.721-1.862V-.955H-.977z" mask="url(#d)"/>
    <g>
      <mask id="f" fill="#fff">
        <use xlink:href="#e"/>
      </mask>
      <path fill="#34A853" d="M-.977 16.704L13.674 5.727l3.859.477 4.932-7.159v22.91H-.977z" mask="url(#f)"/>
    </g>
    <g>
      <mask id="h" fill="#fff">
        <use xlink:href="#g"/>
      </mask>
      <path fill="#4285F4" d="M22.465 21.954L7.325 10.5 5.373 9.068l17.093-4.773z" mask="url(#h)"/>
    </g>
  </g>
</svg>
